<?xml version="1.0" encoding="UTF-8"?>
<svg width="120px" height="64px" viewBox="0 0 120 64" version="1.1" xmlns="http://www.w3.org/2000/svg" xmlns:xlink="http://www.w3.org/1999/xlink">
    <!-- Generator: Sketch 39.1 (31720) - http://www.bohemiancoding.com/sketch -->
    <title>Slice</title>
    <desc>Created with Sketch.</desc>
    <defs></defs>
    <g id="Page-1" stroke="none" stroke-width="1" fill="none" fill-rule="evenodd">
        <rect id="Rectangle" x="0" y="0" width="120" height="64"></rect>
        <path d="M34.96875,24.21875 L34.96875,36.15625 C34.96875,36.5729187 35.0651032,36.966144 35.2578125,37.3359375 C35.4505218,37.705731 35.71354,38.0260403 36.046875,38.296875 C36.38021,38.5677097 36.7708311,38.7838534 37.21875,38.9453125 C37.6666689,39.1067716 38.1458308,39.1875 38.65625,39.1875 C38.989585,39.1875 39.3437481,39.1171882 39.71875,38.9765625 C40.0937519,38.8359368 40.4609357,38.6406262 40.8203125,38.390625 C41.1796893,38.1406238 41.5182276,37.8515641 41.8359375,37.5234375 C42.1536474,37.1953109 42.4166656,36.8437519 42.625,36.46875 L42.625,24.21875 L45.953125,24.21875 L45.953125,41 L42.625,41 L42.625,37.859375 C42.3333319,38.3385441 41.966148,38.7916645 41.5234375,39.21875 C41.080727,39.6458355 40.6015651,40.0182276 40.0859375,40.3359375 C39.5703099,40.6536474 39.0390652,40.9036449 38.4921875,41.0859375 C37.9453098,41.2682301 37.4270858,41.359375 36.9375,41.359375 C36.2083297,41.359375 35.5208366,41.2213555 34.875,40.9453125 C34.2291634,40.6692695 33.6666691,40.2968773 33.1875,39.828125 C32.7083309,39.3593727 32.3307305,38.809899 32.0546875,38.1796875 C31.7786445,37.549476 31.640625,36.8750036 31.640625,36.15625 L31.640625,24.21875 L34.96875,24.21875 Z M55.21875,40.203125 C55.6770856,40.203125 56.0989564,40.1328132 56.484375,39.9921875 C56.8697936,39.8515618 57.2005195,39.6666678 57.4765625,39.4375 C57.7526055,39.2083322 57.9687492,38.9427098 58.125,38.640625 C58.2812508,38.3385402 58.359375,38.0312516 58.359375,37.71875 C58.359375,37.2083308 58.2317721,36.7630227 57.9765625,36.3828125 C57.7213529,36.0026023 57.3828146,35.6588557 56.9609375,35.3515625 C56.5390604,35.0442693 56.0572944,34.7656262 55.515625,34.515625 C54.9739556,34.2656238 54.424482,34.0078138 53.8671875,33.7421875 C53.309893,33.4765612 52.7604194,33.1901057 52.21875,32.8828125 C51.6770806,32.5755193 51.1953146,32.2213562 50.7734375,31.8203125 C50.3515604,31.4192688 50.0130221,30.9557318 49.7578125,30.4296875 C49.5026029,29.9036432 49.375,29.2812536 49.375,28.5625 C49.375,27.8854133 49.5182277,27.2604195 49.8046875,26.6875 C50.0911473,26.1145805 50.4869766,25.6197937 50.9921875,25.203125 C51.4973984,24.7864563 52.101559,24.4609387 52.8046875,24.2265625 C53.507816,23.9921863 54.2760375,23.875 55.109375,23.875 C55.6614611,23.875 56.1822892,23.9140621 56.671875,23.9921875 C57.1614608,24.0703129 57.6380185,24.221353 58.1015625,24.4453125 C58.5651065,24.669272 59.0286435,24.984373 59.4921875,25.390625 C59.9557315,25.796877 60.4374975,26.3281217 60.9375,26.984375 L59.71875,28.078125 C59.0833302,27.0364531 58.3723998,26.2604192 57.5859375,25.75 C56.7994752,25.2395808 55.9583378,24.984375 55.0625,24.984375 C54.5937477,24.984375 54.1614603,25.0442702 53.765625,25.1640625 C53.3697897,25.2838548 53.0312514,25.4453115 52.75,25.6484375 C52.4687486,25.8515635 52.2500008,26.0885403 52.09375,26.359375 C51.9374992,26.6302097 51.859375,26.9166652 51.859375,27.21875 C51.859375,27.7187525 51.9999986,28.1562481 52.28125,28.53125 C52.5625014,28.9062519 52.9322894,29.2447902 53.390625,29.546875 C53.8489606,29.8489598 54.3697887,30.1276029 54.953125,30.3828125 C55.5364613,30.6380221 56.1354136,30.8984362 56.75,31.1640625 C57.3645864,31.4296888 57.9635387,31.7135402 58.546875,32.015625 C59.1302113,32.3177098 59.6510394,32.6692688 60.109375,33.0703125 C60.5677106,33.4713562 60.9374986,33.9348932 61.21875,34.4609375 C61.5000014,34.9869818 61.640625,35.5989548 61.640625,36.296875 C61.640625,37.0052119 61.5078138,37.6692677 61.2421875,38.2890625 C60.9765612,38.9088573 60.5781277,39.4453102 60.046875,39.8984375 C59.5156223,40.3515648 58.8463582,40.708332 58.0390625,40.96875 C57.2317668,41.229168 56.291672,41.359375 55.21875,41.359375 C54.7291642,41.359375 54.2265651,41.3203129 53.7109375,41.2421875 C53.1953099,41.1640621 52.6744818,41.013022 52.1484375,40.7890625 C51.6223932,40.565103 51.0963568,40.250002 50.5703125,39.84375 C50.0442682,39.437498 49.5312525,38.9062533 49.03125,38.25 L50.390625,37.015625 C50.796877,37.5885445 51.1874981,38.0755188 51.5625,38.4765625 C51.9375019,38.8776062 52.3151023,39.2057279 52.6953125,39.4609375 C53.0755227,39.7161471 53.4713521,39.9036452 53.8828125,40.0234375 C54.2942729,40.1432298 54.7395809,40.203125 55.21875,40.203125 L55.21875,40.203125 Z M66.78125,15.625 C67.041668,15.625 67.2890613,15.6692704 67.5234375,15.7578125 C67.7578137,15.8463546 67.9609366,15.9661451 68.1328125,16.1171875 C68.3046884,16.2682299 68.4427078,16.4453115 68.546875,16.6484375 C68.6510422,16.8515635 68.703125,17.0677072 68.703125,17.296875 C68.703125,17.5260428 68.6510422,17.7421865 68.546875,17.9453125 C68.4427078,18.1484385 68.3046884,18.3255201 68.1328125,18.4765625 C67.9609366,18.6276049 67.7578137,18.7473954 67.5234375,18.8359375 C67.2890613,18.9244796 67.041668,18.96875 66.78125,18.96875 C66.520832,18.96875 66.2760428,18.9244796 66.046875,18.8359375 C65.8177072,18.7473954 65.6171884,18.6276049 65.4453125,18.4765625 C65.2734366,18.3255201 65.1354172,18.1484385 65.03125,17.9453125 C64.9270828,17.7421865 64.875,17.5260428 64.875,17.296875 C64.875,17.0677072 64.9270828,16.8515635 65.03125,16.6484375 C65.1354172,16.4453115 65.2734366,16.2682299 65.4453125,16.1171875 C65.6171884,15.9661451 65.8177072,15.8463546 66.046875,15.7578125 C66.2760428,15.6692704 66.520832,15.625 66.78125,15.625 L66.78125,15.625 Z M65.15625,24.828125 L67.5,23.875 L68.46875,23.875 L68.46875,41 L65.15625,41 L65.15625,24.828125 Z M80.703125,41.359375 C79.4218686,41.359375 78.2369846,41.1354189 77.1484375,40.6875 C76.0598904,40.2395811 75.1223998,39.6302122 74.3359375,38.859375 C73.5494752,38.0885378 72.934898,37.184901 72.4921875,36.1484375 C72.049477,35.111974 71.828125,34.0052142 71.828125,32.828125 C71.828125,31.5885355 72.049477,30.4244846 72.4921875,29.3359375 C72.934898,28.2473904 73.5494752,27.2994832 74.3359375,26.4921875 C75.1223998,25.6848918 76.0598904,25.0468773 77.1484375,24.578125 C78.2369846,24.1093727 79.4218686,23.875 80.703125,23.875 C81.9843814,23.875 83.1640571,24.0885395 84.2421875,24.515625 C85.3203179,24.9427105 86.2552044,25.5286421 87.046875,26.2734375 C87.8385456,27.0182329 88.455727,27.8932241 88.8984375,28.8984375 C89.341148,29.9036509 89.5625,30.9791609 89.5625,32.125 C89.5625,33.3958397 89.341148,34.5911402 88.8984375,35.7109375 C88.455727,36.8307348 87.8385456,37.8098916 87.046875,38.6484375 C86.2552044,39.4869834 85.3203179,40.1484351 84.2421875,40.6328125 C83.1640571,41.1171899 81.9843814,41.359375 80.703125,41.359375 L80.703125,41.359375 Z M81.328125,40.125 C81.9843783,40.125 82.5859348,39.9557309 83.1328125,39.6171875 C83.6796902,39.2786441 84.1536438,38.8255237 84.5546875,38.2578125 C84.9557312,37.6901013 85.2656239,37.0260455 85.484375,36.265625 C85.7031261,35.5052045 85.8125,34.7031292 85.8125,33.859375 C85.8125,32.6406189 85.7083344,31.5026095 85.5,30.4453125 C85.2916656,29.3880155 84.9531273,28.4635456 84.484375,27.671875 C84.0156227,26.8802044 83.4062538,26.2578148 82.65625,25.8046875 C81.9062462,25.3515602 80.9843805,25.125 79.890625,25.125 C79.3281222,25.125 78.7864609,25.2864567 78.265625,25.609375 C77.7447891,25.9322933 77.2838562,26.3749972 76.8828125,26.9375 C76.4817688,27.5000028 76.1614595,28.1562463 75.921875,28.90625 C75.6822905,29.6562538 75.5625,30.4531208 75.5625,31.296875 C75.5625,32.5156311 75.692707,33.661453 75.953125,34.734375 C76.213543,35.807297 76.5885392,36.7421835 77.078125,37.5390625 C77.5677108,38.3359415 78.1718714,38.9661435 78.890625,39.4296875 C79.6093786,39.8932315 80.4218705,40.125 81.328125,40.125 L81.328125,40.125 Z M92.765625,24.21875 L96.09375,24.21875 L96.09375,27.28125 C97.1041717,26.1458277 98.1562445,25.2942737 99.25,24.7265625 C100.343755,24.1588513 101.458328,23.875 102.59375,23.875 C103.177086,23.875 103.72656,24.0078112 104.242188,24.2734375 C104.757815,24.5390638 105.205727,24.9010394 105.585938,25.359375 C105.966148,25.8177106 106.268228,26.3567677 106.492188,26.9765625 C106.716147,27.5963573 106.828125,28.2552048 106.828125,28.953125 L106.828125,41 L103.484375,41 L103.484375,29.515625 C103.484375,28.4114528 103.234377,27.5729195 102.734375,27 C102.234373,26.4270805 101.593754,26.140625 100.8125,26.140625 C100.458332,26.140625 100.083335,26.1979161 99.6875,26.3125 C99.2916647,26.4270839 98.890627,26.5911448 98.484375,26.8046875 C98.078123,27.0182302 97.671877,27.273436 97.265625,27.5703125 C96.859373,27.867189 96.4687519,28.1979148 96.09375,28.5625 L96.09375,41 L92.765625,41 L92.765625,24.21875 Z" id="Vusion" fill="#34495E"></path>
        <polygon id="Vusion" fill="#1ABC9C" points="13.234375 19.234375 21.4375 36.546875 29.078125 19.234375 30.8125 19.234375 20.921875 41.515625 19.984375 41.515625 9.375 19.234375"></polygon>
    </g>
</svg>